Coordinates
version=1
nRows=65
nColumns=12
inDegrees=yes

Units are S.I. units (second, meters, Newtons, ...)
Angles are in degrees

endheader
time	SC_y	SC_z	SC_x	AC_y	AC_z	AC_x	GH_y	GH_z	GH_yy	EL_x	PS_y
       0.0              -28.43          35.34          11.32          67.35         -19.94         -17.34          45.27          42.02         -108.5          27.29          16.12
    0.0112              -28.42          35.34          11.32          67.34         -19.94         -17.34          45.26          42.02         -108.5          27.29          16.14
    0.0224              -28.42          35.33          11.32          67.34         -19.93         -17.34          45.25          42.01         -108.5          27.29          16.15
    0.0336              -28.42          35.33          11.32          67.34         -19.93         -17.34          45.25          42.01         -108.5          27.29          16.17
    0.0448              -28.42          35.32          11.32          67.34         -19.93         -17.34          45.24          42.01         -108.5          27.28          16.19
     0.056              -28.42          35.32          11.32          67.33         -19.93         -17.34          45.23          42.01         -108.5          27.28          16.22
    0.0672              -28.42          35.32          11.32          67.33         -19.92         -17.34          45.22           42.0         -108.5          27.27          16.24
    0.0784              -28.42          35.31          11.32          67.33         -19.92         -17.34          45.21           42.0         -108.5          27.27          16.27
    0.0896              -28.42          35.31          11.32          67.32         -19.92         -17.34           45.2           42.0         -108.5          27.27          16.29
    0.1008              -28.42           35.3          11.32          67.32         -19.91         -17.34          45.19          41.99         -108.6          27.26          16.32
     0.112              -28.42           35.3          11.32          67.31         -19.91         -17.34          45.18          41.99         -108.6          27.26          16.35
    0.1232              -28.42          35.29          11.32          67.31          -19.9         -17.34          45.17          41.98         -108.6          27.25          16.39
    0.1344              -28.42          35.28          11.32           67.3          -19.9         -17.34          45.15          41.98         -108.6          27.25          16.42
    0.1456              -28.42          35.28          11.32           67.3          -19.9         -17.34          45.14          41.97         -108.6          27.24          16.46
    0.1568              -28.42          35.27          11.32          67.29         -19.89         -17.34          45.12          41.97         -108.7          27.23           16.5
     0.168              -28.42          35.26          11.32          67.29         -19.88         -17.34          45.11          41.96         -108.7          27.22          16.55
    0.1792              -28.42          35.25          11.32          67.28         -19.88         -17.34          45.09          41.95         -108.7          27.22           16.6
    0.1904              -28.42          35.24          11.32          67.27         -19.87         -17.35          45.07          41.94         -108.7          27.21          16.65
    0.2016              -28.42          35.23          11.32          67.26         -19.86         -17.35          45.05          41.94         -108.8           27.2          16.71
    0.2128              -28.41          35.22          11.32          67.25         -19.86         -17.35          45.02          41.93         -108.8          27.19          16.78
     0.224              -28.41          35.21          11.32          67.24         -19.85         -17.35          44.99          41.92         -108.8          27.18          16.85
    0.2352              -28.41          35.19          11.32          67.23         -19.84         -17.35          44.97          41.91         -108.9          27.16          16.93
    0.2464              -28.41          35.18          11.32          67.22         -19.83         -17.35          44.93          41.89         -108.9          27.15          17.02
    0.2576              -28.41          35.16          11.32          67.21         -19.81         -17.35           44.9          41.88         -109.0          27.13          17.11
    0.2688              -28.41          35.14          11.32          67.19          -19.8         -17.35          44.86          41.86         -109.0          27.12          17.22
      0.28              -28.41          35.12          11.32          67.17         -19.79         -17.35          44.81          41.85         -109.1           27.1          17.34
    0.2912               -28.4           35.1          11.32          67.15         -19.77         -17.36          44.76          41.83         -109.1          27.08          17.47
    0.3024               -28.4          35.07          11.32          67.13         -19.75         -17.36          44.71          41.81         -109.2          27.05          17.62
    0.3136               -28.4          35.04          11.32          67.11         -19.73         -17.36          44.65          41.78         -109.3          27.02          17.79
    0.3248              -28.39          35.01          11.32          67.08         -19.71         -17.36          44.58          41.76         -109.4          26.99          17.98
     0.336              -28.39          34.97          11.32          67.05         -19.68         -17.36          44.49          41.72         -109.5          26.96           18.2
    0.3472              -28.39          34.92          11.32          67.01         -19.65         -17.37           44.4          41.69         -109.6          26.92          18.46
    0.3584              -28.38          34.87          11.32          66.97         -19.61         -17.37          44.29          41.65         -109.8          26.87          18.75
    0.3696              -28.38          34.81          11.32          66.92         -19.57         -17.38          44.17           41.6         -110.0          26.82          19.09
    0.3808              -28.37          34.74          11.32          66.87         -19.52         -17.38          44.02          41.54         -110.2          26.75          19.48
     0.392              -28.36          34.65          11.32           66.8         -19.46         -17.39          43.85          41.48         -110.4          26.68          19.95
    0.4032              -28.35          34.56          11.32          66.72         -19.39         -17.39          43.64           41.4         -110.7          26.59          20.51
    0.4144              -28.34          34.44          11.32          66.62         -19.31          -17.4           43.4          41.31         -111.0          26.48          21.17
    0.4256              -28.33          34.29          11.33          66.51         -19.21         -17.41           43.1          41.19         -111.4          26.35          21.98
    0.4368              -28.31          34.12          11.33          66.37         -19.09         -17.43          42.73          41.05         -111.9          26.19          22.96
     0.448              -28.29           33.9          11.33          66.19         -18.94         -17.44          42.28          40.88         -112.6           26.0          24.17
    0.4592              -28.27          33.63          11.33          65.98         -18.75         -17.46          41.72          40.67         -113.3          25.75          25.69
    0.4704              -28.24          33.29          11.34           65.7         -18.52         -17.48          41.02           40.4         -114.3          25.45          27.59
    0.4816               -28.2          32.86          11.34          65.36         -18.22         -17.52          40.12          40.05         -115.5          25.06          30.02
    0.4928              -28.14          32.31          11.35          64.91         -17.83         -17.56          38.97          39.62         -117.1          24.56          33.12
     0.504              -28.08           31.6          11.35          64.34         -17.34         -17.61           37.5          39.05         -119.2          23.92           37.1
    0.5152              -27.99          30.69          11.36          63.61         -16.71         -17.67          35.62          38.33         -121.7           23.1          42.19
    0.5264              -27.89          29.55          11.37          62.69         -15.92         -17.75          33.25          37.43         -125.0          22.07          48.59
    0.5376              -27.76          28.16          11.39          61.58         -14.96         -17.85          30.36          36.33         -129.0          20.81          56.38
    0.5488              -27.61          26.55           11.4          60.28         -13.84         -17.97          27.02          35.05         -133.6          19.36          65.41
      0.56              -27.45           24.8          11.42          58.88         -12.63         -18.09           23.4          33.67         -138.6          17.78          75.19
    0.5712              -27.29          23.06          11.44          57.48         -11.42         -18.22          19.78          32.28         -143.6          16.21          84.98
    0.5824              -27.14          21.45          11.45          56.18          -10.3         -18.33          16.43           31.0         -148.2          14.75          94.01
    0.5936              -27.01          20.06          11.47          55.07         -9.335         -18.43          13.55           29.9         -152.1           13.5          101.8
    0.6048               -26.9          18.92          11.48          54.15         -8.544         -18.51          11.18           29.0         -155.4          12.47          108.2
     0.616              -26.82          18.01          11.49          53.42         -7.915         -18.58          9.299          28.28         -158.0          11.65          113.3
    0.6272              -26.75           17.3           11.5          52.85         -7.422         -18.63          7.825          27.72         -160.0          11.01          117.3
    0.6384               -26.7          16.75           11.5          52.41         -7.038         -18.67          6.676          27.28         -161.6          10.51          120.4
    0.6496              -26.66          16.32           11.5          52.06         -6.738          -18.7          5.779          26.93         -162.8          10.12          122.8
    0.6608              -26.63          15.98          11.51          51.79         -6.502         -18.72          5.073          26.66         -163.8          9.812          124.7
     0.672               -26.6          15.71          11.51          51.57         -6.315         -18.74          4.513          26.45         -164.6          9.568          126.2
    0.6832              -26.58          15.49          11.51          51.39         -6.165         -18.76          4.063          26.28         -165.2          9.372          127.4
    0.6944              -26.57          15.32          11.51          51.25         -6.043         -18.77          3.699          26.14         -165.7          9.214          128.4
    0.7056              -26.55          15.17          11.52          51.14         -5.943         -18.78          3.401          26.03         -166.1          9.084          129.2
    0.7168              -26.54          15.05          11.52          51.04         -5.861         -18.79          3.155          25.93         -166.5          8.977          129.9
